<svg id="Capa_1" enable-background="new 0 0 512 512" height="512" viewBox="0 0 512 512" width="512" xmlns="http://www.w3.org/2000/svg"><g id="Recovery_2_"><g><path d="m255.781 30c70.972 0 137.582 33.977 179.804 90h-44.218v30h87.275v-90h-30v29.028c-47.997-55.56-118.176-89.028-192.861-89.028-21.563 0-43.008 2.695-63.75 8.027l7.5 29.063c18.252-4.702 37.207-7.09 56.25-7.09z" fill="#6cf"/><path d="m435.585 120h-44.218v30h87.275v-90h-30v29.028c-47.997-55.56-118.176-89.028-192.861-89.028v30c70.972 0 137.582 33.977 179.804 90z" fill="#59abff"/><path d="m512 256c0-21.533-2.695-42.979-8.027-63.735l-29.063 7.471c4.717 18.31 7.09 37.25 7.09 56.264 0 70.968-33.979 137.587-90 179.795v-44.326h-30v87.319h90v-30h-28.943c55.495-47.99 88.943-118.138 88.943-192.788z" fill="#59abff"/><path d="m255.781 482c-70.959 0-137.584-33.975-179.81-90h44.282v-30h-87.421v90h30v-29.13c47.997 55.616 118.209 89.13 192.949 89.13 21.563 0 43.008-2.695 63.75-8.027l-7.5-29.063c-18.252 4.702-37.207 7.09-56.25 7.09z" fill="#6cf"/><g id="Recovery_3_"><path d="m319.531 503.973-7.5-29.063c-18.252 4.702-37.207 7.09-56.25 7.09v30c21.563 0 43.008-2.695 63.75-8.027z" fill="#59abff"/></g><path d="m30 256c0-70.975 33.979-137.606 90-179.821v44.293h30v-87.451h-90v30h29.165c-55.64 47.994-89.165 118.228-89.165 192.979 0 21.533 2.695 42.979 8.027 63.735l29.063-7.471c-4.717-18.31-7.09-37.25-7.09-56.264z" fill="#6cf"/></g><g><path d="m360.984 247.577 34.805-20.098-45-77.959-35.098 20.288c-4.57-3.149-9.346-5.918-14.297-8.291v-40.517h-90v40.518c-4.951 2.373-9.727 5.142-14.297 8.291l-35.097-20.288-45 77.959 34.805 20.098c-.531 5.58-.561 10.951 0 16.846l-34.805 20.097 45 77.959 35.098-20.288c4.57 3.149 9.346 5.918 14.297 8.291v40.517h90v-40.518c4.951-2.373 9.727-5.142 14.297-8.291l35.098 20.288 45-77.959-34.805-20.098c.531-5.579.561-10.95-.001-16.845zm-104.589 53.423c-24.814 0-45-20.186-45-45s20.186-45 45-45 45 20.186 45 45-20.186 45-45 45z" fill="#465d8c"/></g><path d="m301.395 350.482c4.951-2.373 9.727-5.142 14.297-8.291l35.098 20.288 45-77.959-34.805-20.098c.531-5.581.562-10.952 0-16.846l34.805-20.098-45-77.959-35.098 20.288c-4.57-3.149-9.346-5.918-14.297-8.291v-40.516h-45v90c24.814 0 45 20.186 45 45s-20.186 45-45 45v90h45z" fill="#333b66"/></g></svg>